<svg width="29" height="29" viewBox="0 0 29 29" fill="none" xmlns="http://www.w3.org/2000/svg">
<path d="M20.4295 21.5708C19.1106 21.5708 18.0531 22.6284 18.0531 23.9473C18.0531 24.5775 18.3035 25.182 18.7491 25.6276C19.1948 26.0733 19.7992 26.3237 20.4295 26.3237C21.0598 26.3237 21.6642 26.0733 22.1099 25.6276C22.5555 25.182 22.8059 24.5775 22.8059 23.9473C22.8059 23.317 22.5555 22.7125 22.1099 22.2669C21.6642 21.8212 21.0598 21.5708 20.4295 21.5708ZM1.41821 2.55957V4.93598H3.79462L8.07216 13.9545L6.4562 16.8656C6.27797 17.1983 6.17103 17.5904 6.17103 18.0062C6.17103 18.6365 6.4214 19.2409 6.86707 19.6866C7.31273 20.1323 7.91718 20.3826 8.54744 20.3826H22.8059V18.0062H9.04649C8.9677 18.0062 8.89215 17.9749 8.83644 17.9192C8.78073 17.8635 8.74944 17.788 8.74944 17.7092C8.74944 17.6498 8.76132 17.6022 8.78508 17.5666L9.85447 15.6298H18.7066C19.5977 15.6298 20.382 15.1308 20.7859 14.406L25.0397 6.71829C25.1229 6.52817 25.1823 6.32618 25.1823 6.12419C25.1823 5.80905 25.0571 5.50683 24.8343 5.284C24.6115 5.06117 24.3092 4.93598 23.9941 4.93598H6.42056L5.30364 2.55957M8.54744 21.5708C7.22853 21.5708 6.17103 22.6284 6.17103 23.9473C6.17103 24.5775 6.4214 25.182 6.86707 25.6276C7.31273 26.0733 7.91718 26.3237 8.54744 26.3237C9.1777 26.3237 9.78215 26.0733 10.2278 25.6276C10.6735 25.182 10.9239 24.5775 10.9239 23.9473C10.9239 23.317 10.6735 22.7125 10.2278 22.2669C9.78215 21.8212 9.1777 21.5708 8.54744 21.5708Z" fill="#0D0801"/>
</svg>
