<svg width="28" height="28" viewBox="0 0 28 28" fill="none" xmlns="http://www.w3.org/2000/svg">
<path d="M19.8332 21C18.5382 21 17.4998 22.0384 17.4998 23.3334C17.4998 23.9522 17.7457 24.5457 18.1833 24.9833C18.6208 25.4209 19.2143 25.6667 19.8332 25.6667C20.452 25.6667 21.0455 25.4209 21.4831 24.9833C21.9207 24.5457 22.1665 23.9522 22.1665 23.3334C22.1665 22.7145 21.9207 22.121 21.4831 21.6835C21.0455 21.2459 20.452 21 19.8332 21ZM1.1665 2.33337V4.66671H3.49984L7.69984 13.5217L6.11317 16.38C5.93817 16.7067 5.83317 17.0917 5.83317 17.5C5.83317 18.1189 6.079 18.7124 6.51659 19.15C6.95417 19.5875 7.54767 19.8334 8.1665 19.8334H22.1665V17.5H8.6565C8.57915 17.5 8.50496 17.4693 8.45026 17.4146C8.39557 17.3599 8.36484 17.2857 8.36484 17.2084C8.36484 17.15 8.3765 17.1034 8.39984 17.0684L9.44984 15.1667H18.1415C19.0165 15.1667 19.7865 14.6767 20.1832 13.965L24.3598 6.41671C24.4415 6.23004 24.4998 6.03171 24.4998 5.83337C24.4998 5.52396 24.3769 5.22721 24.1581 5.00842C23.9393 4.78962 23.6426 4.66671 23.3332 4.66671H6.07817L4.9815 2.33337M8.1665 21C6.8715 21 5.83317 22.0384 5.83317 23.3334C5.83317 23.9522 6.079 24.5457 6.51659 24.9833C6.95417 25.4209 7.54767 25.6667 8.1665 25.6667C8.78534 25.6667 9.37883 25.4209 9.81642 24.9833C10.254 24.5457 10.4998 23.9522 10.4998 23.3334C10.4998 22.7145 10.254 22.121 9.81642 21.6835C9.37883 21.2459 8.78534 21 8.1665 21Z" fill="#E6E6E6"/>
</svg>
