<svg width="15" height="15" viewBox="0 0 15 15" fill="none" xmlns="http://www.w3.org/2000/svg">
<path d="M6.707 12.707C6.51947 12.8944 6.26516 12.9998 6 12.9998C5.73484 12.9998 5.48053 12.8944 5.293 12.707L0.793 8.20697C0.605529 8.01944 0.500214 7.76513 0.500214 7.49997C0.500214 7.23481 0.605529 6.9805 0.793 6.79297L5.293 2.29297C5.4816 2.11081 5.7342 2.01002 5.9964 2.0123C6.2586 2.01457 6.50941 2.11974 6.69482 2.30515C6.88023 2.49056 6.9854 2.74137 6.98767 3.00357C6.98995 3.26577 6.88916 3.51837 6.707 3.70697L4 6.49997L13.5 6.49997C13.7652 6.49997 14.0196 6.60533 14.2071 6.79286C14.3946 6.9804 14.5 7.23475 14.5 7.49997C14.5 7.76519 14.3946 8.01954 14.2071 8.20708C14.0196 8.39461 13.7652 8.49997 13.5 8.49997H4L6.707 11.293C6.89447 11.4805 6.99979 11.7348 6.99979 12C6.99979 12.2651 6.89447 12.5194 6.707 12.707Z" fill="#0D0801"/>
</svg>
